<?xml version="1.0" standalone="no"?>
<!DOCTYPE svg PUBLIC "-//W3C//DTD SVG 20010904//EN"
 "http://www.w3.org/TR/2001/REC-SVG-20010904/DTD/svg10.dtd">
<svg version="1.0" xmlns="http://www.w3.org/2000/svg"
 width="260.000000pt" height="260.000000pt" viewBox="0 0 260.000000 260.000000"
 preserveAspectRatio="xMidYMid meet">
<metadata>
Created by potrace 1.14, written by Peter Selinger 2001-2017
</metadata>
<g transform="translate(0.000000,260.000000) scale(0.100000,-0.100000)"
fill="#000000" stroke="none">
<path d="M0 1300 l0 -1300 1300 0 1300 0 0 1300 0 1300 -1300 0 -1300 0 0
-1300z m2331 1091 l29 -29 0 -1037 0 -1037 -29 -29 -29 -29 -997 0 -997 0 -29
29 -29 29 0 1037 0 1037 29 29 29 29 997 0 997 0 29 -29z"/>
<path d="M350 2056 l0 -166 45 0 45 0 0 70 0 70 33 0 c51 0 105 19 122 43 24
34 19 90 -11 118 -22 21 -36 24 -130 27 l-104 4 0 -166z m160 115 c26 -50 4
-111 -40 -111 l-30 0 0 65 0 65 30 0 c19 0 33 -7 40 -19z"/>
<path d="M705 2208 c-19 -51 -93 -313 -90 -316 11 -11 34 10 40 37 6 30 8 31
61 31 52 0 54 -1 62 -32 8 -31 11 -33 56 -36 42 -3 47 -1 42 15 -3 10 -24 84
-47 166 l-42 147 -39 0 c-22 0 -41 -5 -43 -12z m38 -148 c9 -35 14 -66 12 -68
-1 -2 -21 -2 -42 0 l-39 3 19 73 c11 40 23 69 27 65 4 -4 14 -37 23 -73z"/>
<path d="M910 2056 l0 -166 45 0 45 0 0 80 c0 77 1 80 23 80 35 0 47 -19 47
-76 0 -77 5 -84 60 -84 l47 0 -13 67 c-8 45 -19 73 -33 84 -20 16 -19 16 10
38 25 19 30 28 27 58 -5 60 -40 77 -159 81 l-99 4 0 -166z m158 122 c7 -7 12
-26 12 -43 0 -38 -16 -55 -52 -55 -27 0 -28 1 -28 55 0 54 1 55 28 55 15 0 33
-5 40 -12z"/>
<path d="M1200 2205 c0 -11 11 -15 40 -15 l40 0 0 -150 0 -150 50 0 50 0 0
150 0 150 40 0 c29 0 40 4 40 15 0 13 -21 15 -130 15 -109 0 -130 -2 -130 -15z"/>
<path d="M1490 2055 c0 -140 2 -165 15 -165 12 0 15 19 15 108 l0 107 70 -107
c67 -103 72 -108 105 -108 l35 0 0 165 c0 138 -2 165 -15 165 -12 0 -15 -21
-17 -110 l-3 -109 -74 109 c-65 96 -78 110 -103 110 l-28 0 0 -165z"/>
<path d="M1790 2055 l0 -165 115 0 c96 0 115 3 115 15 0 12 -14 15 -70 15
l-70 0 0 70 0 70 50 0 c38 0 50 4 50 15 0 11 -12 15 -50 15 l-50 0 0 50 0 50
60 0 c47 0 60 3 60 15 0 12 -18 15 -105 15 l-105 0 0 -165z"/>
<path d="M2050 2056 l0 -166 45 0 45 0 0 80 c0 77 1 80 23 80 35 0 47 -19 47
-76 0 -77 5 -84 60 -84 l47 0 -13 67 c-8 45 -19 73 -33 84 -20 16 -19 16 10
38 25 19 30 28 27 58 -5 60 -40 77 -159 81 l-99 4 0 -166z m158 122 c7 -7 12
-26 12 -43 0 -38 -16 -55 -52 -55 -27 0 -28 1 -28 55 0 54 1 55 28 55 15 0 33
-5 40 -12z"/>
<path d="M410 1280 l0 -400 35 0 35 0 2 252 3 252 165 -251 165 -252 88 0 87
-1 0 400 0 400 -35 0 -35 0 -2 -272 -3 -273 -183 273 -182 272 -70 0 -70 0 0
-400z"/>
<path d="M1120 1280 l0 -400 280 0 280 0 0 40 0 40 -165 0 -165 0 0 160 0 160
120 0 120 0 0 40 0 40 -120 0 -120 0 0 120 0 120 145 0 145 0 0 40 0 40 -260
0 -260 0 0 -400z"/>
<path d="M1680 1640 l0 -40 100 0 100 0 0 -360 0 -360 120 0 120 0 0 360 0
360 100 0 100 0 0 40 0 40 -320 0 -320 0 0 -40z"/>
<path d="M380 525 l0 -135 35 0 35 0 0 135 0 135 -35 0 -35 0 0 -135z"/>
<path d="M490 525 c0 -112 3 -135 15 -135 11 0 15 18 17 82 l3 83 53 -83 c47
-72 56 -82 82 -82 l30 0 0 135 c0 113 -2 135 -15 135 -12 0 -15 -17 -15 -92
l0 -93 -61 93 c-49 73 -67 92 -85 92 l-24 0 0 -135z"/>
<path d="M710 645 c0 -10 10 -15 30 -15 l30 0 0 -120 0 -120 40 0 40 0 0 120
0 120 35 0 c24 0 35 5 35 15 0 12 -18 15 -105 15 -87 0 -105 -3 -105 -15z"/>
<path d="M940 525 l0 -135 95 0 c78 0 95 3 95 15 0 12 -13 15 -55 15 l-55 0 0
50 0 50 40 0 c29 0 40 4 40 15 0 11 -11 15 -40 15 l-40 0 0 40 0 40 45 0 c33
0 45 4 45 15 0 12 -16 15 -85 15 l-85 0 0 -135z"/>
<path d="M1150 526 l0 -136 40 0 40 0 0 66 c0 62 1 65 23 62 16 -2 23 -11 25
-33 8 -90 10 -95 51 -95 l38 0 -9 53 c-5 32 -17 59 -30 70 -11 9 -16 17 -10
17 20 0 42 31 42 59 0 48 -31 66 -126 70 l-84 3 0 -136z m128 102 c7 -7 12
-24 12 -38 0 -30 -17 -50 -42 -50 -15 0 -18 9 -18 50 0 41 3 50 18 50 10 0 23
-5 30 -12z"/>
<path d="M1410 525 l0 -135 95 0 c78 0 95 3 95 15 0 12 -13 15 -55 15 l-55 0
0 50 0 50 40 0 c29 0 40 4 40 15 0 11 -11 15 -40 15 l-40 0 0 40 0 40 45 0
c33 0 45 4 45 15 0 12 -16 15 -85 15 l-85 0 0 -135z"/>
<path d="M1670 653 c-33 -12 -50 -37 -50 -73 0 -41 13 -57 78 -89 48 -24 60
-44 42 -66 -28 -34 -100 -8 -100 36 0 11 -7 19 -16 19 -13 0 -15 -6 -9 -27 10
-41 22 -51 70 -59 53 -8 95 10 113 49 23 47 1 82 -69 114 -61 28 -77 47 -58
69 26 32 108 3 95 -33 -4 -9 -1 -13 6 -11 7 3 13 15 13 29 0 37 -64 61 -115
42z"/>
<path d="M1820 645 c0 -10 10 -15 30 -15 l30 0 0 -120 0 -120 40 0 40 0 0 120
0 120 35 0 c24 0 35 5 35 15 0 12 -18 15 -105 15 -87 0 -105 -3 -105 -15z"/>
<path d="M2100 653 c-33 -12 -50 -37 -50 -73 0 -41 13 -57 78 -89 48 -24 60
-44 42 -66 -28 -34 -100 -8 -100 36 0 11 -7 19 -16 19 -13 0 -15 -6 -9 -27 10
-41 22 -51 70 -59 53 -8 95 10 113 49 23 47 1 82 -69 114 -61 28 -77 47 -58
69 26 32 108 3 95 -33 -4 -9 -1 -13 6 -11 7 3 13 15 13 29 0 37 -64 61 -115
42z"/>
</g>
</svg>
